<svg width="103" height="250" viewBox="0 0 103 250" fill="none" xmlns="http://www.w3.org/2000/svg">
<path d="M24 183.474V170.484H78.5567L64.268 214H37.6392V183.474H24Z" fill="black"/>
<path d="M51.2784 200.361V151H68.1649L51.2784 200.361Z" fill="white"/>
<path d="M61.6701 170.484H51.2784V200.361L61.6701 170.484Z" fill="#61D4E6"/>
<path d="M22 33.4019V28.041H44.5158L38.6188 46.0001H27.629V33.4019H22Z" fill="black"/>
<path d="M33.2581 40.3715V20H40.2273L33.2581 40.3715Z" fill="white"/>
<path d="M37.5468 28.041H33.2581V40.3711L37.5468 28.041Z" fill="#61D4E6"/>
<path d="M22 94.5575V87.1348H53.1754L45.0104 112.001H29.7939V94.5575H22Z" fill="black"/>
<path d="M37.5878 104.206V76H47.2374L37.5878 104.206Z" fill="white"/>
<path d="M43.526 87.1348H37.5878V104.207L43.526 87.1348Z" fill="#61D4E6"/>
<rect x="0.5" y="0.5" width="102" height="249" rx="4.5" stroke="#9747FF" stroke-dasharray="10 5"/>
</svg>
